<svg width="218" height="244" viewBox="0 0 218 244" fill="none" xmlns="http://www.w3.org/2000/svg">
<path d="M155.64 237.716C149.931 239.794 143.619 236.85 141.541 231.142L97.7623 110.861C95.6844 105.152 98.6279 98.84 104.337 96.7622V96.7622C110.045 94.6844 116.358 97.6278 118.435 103.337L162.214 223.617C164.292 229.326 161.348 235.638 155.64 237.716V237.716Z" fill="#725F4B"/>
<path d="M110.64 98.7622C116.348 100.84 119.292 107.152 117.214 112.861L73.4354 233.142C71.3576 238.85 65.0454 241.794 59.3366 239.716V239.716C53.6278 237.638 50.6844 231.326 52.7622 225.617L96.5408 105.337C98.6186 99.6279 104.931 96.6844 110.64 98.7622V98.7622Z" fill="#725F4B"/>
<path d="M67 189.505C67 183.151 72.151 178 78.505 178L134.575 178C140.929 178 146.08 183.151 146.08 189.505V189.505C146.08 195.859 140.929 201.01 134.575 201.01H78.505C72.151 201.01 67 195.859 67 189.505V189.505Z" fill="#725F4B"/>
<path d="M28 69L20.5 59L19.724 56.866C17.5806 50.9716 14.8241 45.3186 11.5 40L8.25 33L3.5 18.75L0.178768 10.4469C0.0606742 10.1517 0 9.83663 0 9.51865C0 5.74383 2.69958 2.50917 6.41351 1.83391L8.25 1.5L16.5 0H24.5H32.5L42.25 3L52 6L60 10L68 14L74.75 18.75L81.5 23.5L87.5 30L93.5 36.5L100 49.5L102.5 64.5L104 77V88.5L100 77L93.5 66.5L81.5 56.5L88 69L93.5 80V95H81.5H68L60 93L52 91L44.75 85.5L37.5 80L28 69Z" fill="#05472A"/>
<path d="M115 74V88.5L118.5 83.5L123.5 74L135 66.5L128 78L123.5 86V95L135 100H150.5L161.5 97.5L170.5 93L180.5 86L189 78L194.5 69L200 60L209.5 53L217.5 47L202.5 38.5L185 34.5L170.5 32L158.5 34.5L146 38.5L135 44.5L125.5 53L118.5 64L115 74Z" fill="#05472A"/>
</svg>
