<svg width="50" height="22" viewBox="0 0 50 22" fill="none" xmlns="http://www.w3.org/2000/svg">
<path fill-rule="evenodd" clip-rule="evenodd" d="M20.1988 0.728346C20.072 0.673396 19.928 0.673396 19.8012 0.728346L13.3012 3.54463C13.1184 3.62386 13 3.80412 13 4.00342C13 4.20271 13.1184 4.38297 13.3012 4.46221L14.1938 4.84895V10.44C13.7595 10.6327 13.4565 11.0677 13.4565 11.5735C13.4565 12.258 14.0114 12.8129 14.6959 12.8129C15.3805 12.8129 15.9353 12.258 15.9353 11.5735C15.9353 11.0672 15.6318 10.6318 15.1968 10.4394V5.28352L19.8012 7.27849C19.928 7.33344 20.072 7.33344 20.1988 7.27849L26.6988 4.46221C26.8816 4.38297 27 4.20271 27 4.00342C27 3.80412 26.8816 3.62386 26.6988 3.54463L20.1988 0.728346ZM15.9557 9.35343L15.9507 6.97264L19.3038 8.42546C19.7477 8.61778 20.2514 8.61778 20.6953 8.42546L24.049 6.97238L24.0495 9.35227C24.0495 9.46155 24.0137 9.56782 23.9476 9.65484L23.5495 9.35238C23.9476 9.65484 23.9476 9.65484 23.9476 9.65484L23.9469 9.65576L23.9461 9.65682L23.9442 9.65932L23.9391 9.66585L23.9238 9.68483C23.9114 9.70001 23.8945 9.72016 23.8729 9.74455C23.8298 9.79331 23.7681 9.85917 23.6872 9.93629C23.5254 10.0904 23.2857 10.2904 22.9627 10.4886C22.3135 10.887 21.3365 11.2726 19.9997 11.2726C18.6629 11.2726 17.6872 10.887 17.0391 10.4883C16.7167 10.29 16.4777 10.0899 16.3164 9.93563C16.2357 9.85844 16.1742 9.79252 16.1313 9.7437C16.1098 9.71928 16.0929 9.6991 16.0805 9.68389L16.0653 9.66488L16.0602 9.65832L16.0583 9.65581L16.0575 9.65475C16.0575 9.65475 16.0568 9.65382 16.4557 9.35241L16.0568 9.65382C15.9914 9.5673 15.9559 9.46187 15.9557 9.35343Z" fill="#AC8A63"/>
<path d="M6.336 18.82C6.232 18.684 6.144 18.536 6.072 18.376C6 18.208 5.924 18.008 5.844 17.776C5.828 17.736 5.78 17.616 5.7 17.416C5.628 17.216 5.544 17.044 5.448 16.9C4.944 16.972 4.532 17.008 4.212 17.008C4.036 17.008 3.84 17.004 3.624 16.996C3.416 16.98 3.26 16.972 3.156 16.972C2.756 16.94 2.436 16.924 2.196 16.924C2.1 17.052 2.016 17.188 1.944 17.332C1.88 17.476 1.796 17.692 1.692 17.98C1.548 18.396 1.424 18.692 1.32 18.868C1.248 18.988 1.108 19.048 0.9 19.048C0.724 19.048 0.56 19.012 0.408 18.94C0.264 18.86 0.192 18.752 0.192 18.616C0.256 18.312 0.356 17.992 0.492 17.656C0.636 17.312 0.84 16.856 1.104 16.288L1.584 15.112C1.848 14.44 2.088 13.864 2.304 13.384C2.528 12.904 2.82 12.336 3.18 11.68C3.228 11.584 3.308 11.504 3.42 11.44C3.532 11.368 3.656 11.332 3.792 11.332C3.944 11.332 4.052 11.344 4.116 11.368C4.188 11.384 4.244 11.416 4.284 11.464C4.324 11.504 4.384 11.592 4.464 11.728C4.736 12.152 4.968 12.588 5.16 13.036C5.36 13.484 5.612 14.104 5.916 14.896L6.168 15.532C6.392 16.108 6.584 16.592 6.744 16.984C6.912 17.368 7.096 17.72 7.296 18.04C7.424 18.248 7.488 18.392 7.488 18.472C7.488 18.664 7.428 18.812 7.308 18.916C7.196 19.012 7.048 19.06 6.864 19.06C6.632 19.06 6.456 18.98 6.336 18.82ZM5.1 15.916C4.972 15.644 4.788 15.172 4.548 14.5C4.3 13.78 4.052 13.208 3.804 12.784C3.652 13.168 3.428 13.664 3.132 14.272C2.932 14.648 2.704 15.192 2.448 15.904C2.96 15.968 3.512 16 4.104 16C4.528 16 4.86 15.972 5.1 15.916ZM12.5718 14.992C12.5718 15.344 12.3918 15.52 12.0318 15.52C11.9118 15.52 11.8118 15.492 11.7318 15.436C11.6518 15.38 11.5638 15.296 11.4678 15.184C11.2278 14.92 11.0198 14.788 10.8438 14.788C10.6118 14.788 10.3838 14.856 10.1598 14.992C9.94378 15.128 9.76778 15.32 9.63178 15.568C9.49578 15.816 9.42778 16.092 9.42778 16.396C9.42778 16.732 9.49178 17.012 9.61978 17.236C9.75578 17.46 9.96378 17.652 10.2438 17.812C10.3478 17.868 10.4678 17.912 10.6038 17.944C10.7478 17.976 10.8718 17.992 10.9758 17.992C11.2078 17.992 11.4998 17.9 11.8518 17.716C11.9798 17.652 12.0878 17.604 12.1758 17.572C12.2638 17.54 12.3558 17.524 12.4518 17.524C12.5398 17.524 12.6398 17.564 12.7518 17.644C12.8638 17.724 12.9198 17.824 12.9198 17.944C12.9198 18.184 12.8078 18.388 12.5838 18.556C12.3598 18.716 12.0838 18.84 11.7558 18.928C11.4358 19.008 11.1278 19.048 10.8318 19.048C10.3598 19.048 9.91978 18.94 9.51178 18.724C9.11178 18.508 8.79178 18.212 8.55178 17.836C8.31178 17.452 8.19178 17.02 8.19178 16.54C8.19178 16.028 8.30778 15.56 8.53978 15.136C8.77178 14.712 9.08378 14.38 9.47578 14.14C9.86778 13.9 10.2958 13.78 10.7598 13.78C11.0238 13.78 11.2958 13.828 11.5758 13.924C11.8558 14.02 12.0918 14.16 12.2838 14.344C12.4758 14.528 12.5718 14.744 12.5718 14.992ZM21.0058 11.296C21.2858 11.32 21.5298 11.396 21.7378 11.524C21.9458 11.644 22.0498 11.828 22.0498 12.076C22.0498 12.26 21.9618 12.408 21.7858 12.52C21.6178 12.624 21.4138 12.676 21.1738 12.676C20.9418 12.676 20.7818 12.616 20.6938 12.496C20.6058 12.376 20.5618 12.252 20.5618 12.124C20.5618 11.884 20.5858 11.684 20.6338 11.524C20.6898 11.364 20.8138 11.288 21.0058 11.296ZM21.9658 16.612V16.96C21.9658 17.272 21.9738 17.568 21.9898 17.848C22.0138 18.12 22.0418 18.396 22.0738 18.676C22.0658 18.756 22.0058 18.84 21.8938 18.928C21.7818 19.008 21.6818 19.048 21.5938 19.048C21.4418 19.048 21.2858 19.02 21.1258 18.964C20.9738 18.9 20.8818 18.824 20.8498 18.736C20.8018 18.48 20.7778 18.252 20.7778 18.052C20.7778 17.396 20.7578 16.66 20.7178 15.844C20.6858 15.124 20.6698 14.62 20.6698 14.332C20.6698 14.188 20.7418 14.064 20.8858 13.96C21.0298 13.856 21.1818 13.804 21.3418 13.804C21.5738 13.804 21.7338 13.856 21.8218 13.96C21.9178 14.064 21.9658 14.228 21.9658 14.452V16.612ZM23.3681 16.456C23.3681 16.152 23.4241 15.848 23.5361 15.544C23.6481 15.232 23.7961 14.948 23.9801 14.692C24.1641 14.436 24.4561 14.228 24.8561 14.068C25.2561 13.9 25.6121 13.816 25.9241 13.816C26.2441 13.816 26.5681 13.86 26.8961 13.948C27.2321 14.036 27.4641 14.172 27.5921 14.356C27.8881 14.772 28.0361 15.18 28.0361 15.58C28.0361 15.796 27.9881 15.98 27.8921 16.132C27.8041 16.284 27.6761 16.448 27.5081 16.624C27.3721 16.768 27.1561 16.864 26.8601 16.912C26.5721 16.96 26.2841 16.984 25.9961 16.984C25.8121 16.984 25.5881 16.968 25.3241 16.936C25.0601 16.896 24.8041 16.848 24.5561 16.792C24.5721 16.952 24.6121 17.108 24.6761 17.26C24.7401 17.412 24.8161 17.528 24.9041 17.608C25.0641 17.76 25.2281 17.856 25.3961 17.896C25.5721 17.936 25.7961 17.956 26.0681 17.956C26.3561 17.956 26.6241 17.908 26.8721 17.812C27.0721 17.74 27.2361 17.704 27.3641 17.704C27.5161 17.704 27.6321 17.752 27.7121 17.848C27.7921 17.936 27.8321 18.052 27.8321 18.196C27.8321 18.396 27.7161 18.56 27.4841 18.688C27.2521 18.816 26.9841 18.912 26.6801 18.976C26.3841 19.032 26.1441 19.06 25.9601 19.06C25.5841 19.06 25.2201 18.992 24.8681 18.856C24.5161 18.72 24.2241 18.528 23.9921 18.28C23.8001 18.056 23.6481 17.788 23.5361 17.476C23.4241 17.156 23.3681 16.816 23.3681 16.456ZM25.9841 14.836C25.8081 14.836 25.6321 14.872 25.4561 14.944C25.2801 15.008 25.1361 15.1 25.0241 15.22C24.8801 15.372 24.7801 15.496 24.7241 15.592C24.6761 15.68 24.6441 15.804 24.6281 15.964C24.8281 16.028 25.2441 16.06 25.8761 16.06C26.2201 16.06 26.4841 16.008 26.6681 15.904C26.8601 15.8 26.9561 15.664 26.9561 15.496C26.9561 15.328 26.8521 15.176 26.6441 15.04C26.4361 14.904 26.2161 14.836 25.9841 14.836ZM31.9669 15.916C31.9909 15.852 32.0749 15.62 32.2189 15.22C32.3709 14.82 32.5109 14.516 32.6389 14.308C32.8469 13.98 33.0309 13.816 33.1909 13.816C33.4149 13.816 33.5869 13.86 33.7069 13.948C33.8269 14.028 33.8869 14.144 33.8869 14.296C33.8869 14.368 33.8549 14.468 33.7909 14.596C33.7349 14.724 33.7029 14.8 33.6949 14.824C33.3749 15.528 33.0869 16.284 32.8309 17.092L32.5789 18.028C32.4829 18.332 32.3189 18.58 32.0869 18.772C31.8549 18.956 31.5829 19.048 31.2709 19.048C30.9909 19.048 30.7309 18.92 30.4909 18.664C30.3469 18.44 30.1949 18.156 30.0349 17.812C29.8829 17.468 29.7509 17.132 29.6389 16.804L29.2189 15.544C29.1309 15.296 29.0589 15.084 29.0029 14.908C28.9549 14.732 28.9309 14.572 28.9309 14.428C28.9229 14.26 28.9709 14.124 29.0749 14.02C29.1789 13.916 29.3229 13.864 29.5069 13.864C29.7149 13.864 29.8629 13.908 29.9509 13.996C30.0389 14.076 30.1189 14.204 30.1909 14.38C30.2229 14.564 30.3109 14.94 30.4549 15.508L30.5389 15.844C30.6109 16.116 30.7029 16.392 30.8149 16.672C30.9269 16.952 31.0389 17.22 31.1509 17.476C31.1349 17.436 31.1909 17.568 31.3189 17.872C31.3989 17.64 31.4909 17.356 31.5949 17.02L31.9669 15.916ZM34.6416 16.456C34.6416 16.152 34.6976 15.848 34.8096 15.544C34.9216 15.232 35.0696 14.948 35.2536 14.692C35.4376 14.436 35.7296 14.228 36.1296 14.068C36.5296 13.9 36.8856 13.816 37.1976 13.816C37.5176 13.816 37.8416 13.86 38.1696 13.948C38.5056 14.036 38.7376 14.172 38.8656 14.356C39.1616 14.772 39.3096 15.18 39.3096 15.58C39.3096 15.796 39.2616 15.98 39.1656 16.132C39.0776 16.284 38.9496 16.448 38.7816 16.624C38.6456 16.768 38.4296 16.864 38.1336 16.912C37.8456 16.96 37.5576 16.984 37.2696 16.984C37.0856 16.984 36.8616 16.968 36.5976 16.936C36.3336 16.896 36.0776 16.848 35.8296 16.792C35.8456 16.952 35.8856 17.108 35.9496 17.26C36.0136 17.412 36.0896 17.528 36.1776 17.608C36.3376 17.76 36.5016 17.856 36.6696 17.896C36.8456 17.936 37.0696 17.956 37.3416 17.956C37.6296 17.956 37.8976 17.908 38.1456 17.812C38.3456 17.74 38.5096 17.704 38.6376 17.704C38.7896 17.704 38.9056 17.752 38.9856 17.848C39.0656 17.936 39.1056 18.052 39.1056 18.196C39.1056 18.396 38.9896 18.56 38.7576 18.688C38.5256 18.816 38.2576 18.912 37.9536 18.976C37.6576 19.032 37.4176 19.06 37.2336 19.06C36.8576 19.06 36.4936 18.992 36.1416 18.856C35.7896 18.72 35.4976 18.528 35.2656 18.28C35.0736 18.056 34.9216 17.788 34.8096 17.476C34.6976 17.156 34.6416 16.816 34.6416 16.456ZM37.2576 14.836C37.0816 14.836 36.9056 14.872 36.7296 14.944C36.5536 15.008 36.4096 15.1 36.2976 15.22C36.1536 15.372 36.0536 15.496 35.9976 15.592C35.9496 15.68 35.9176 15.804 35.9016 15.964C36.1016 16.028 36.5176 16.06 37.1496 16.06C37.4936 16.06 37.7576 16.008 37.9416 15.904C38.1336 15.8 38.2296 15.664 38.2296 15.496C38.2296 15.328 38.1256 15.176 37.9176 15.04C37.7096 14.904 37.4896 14.836 37.2576 14.836ZM42.2323 18.52C42.2323 18.656 42.1803 18.776 42.0763 18.88C41.9723 18.984 41.8443 19.036 41.6923 19.036C41.4523 19.036 41.2763 18.992 41.1643 18.904C41.0523 18.808 40.9963 18.636 40.9963 18.388C40.9963 18.092 40.9883 17.704 40.9723 17.224C40.9563 16.824 40.9483 16.488 40.9483 16.216C40.9483 16.088 40.9563 15.92 40.9723 15.712C40.9883 15.52 40.9963 15.376 40.9963 15.28C40.9723 15.128 40.9123 15.004 40.8163 14.908C40.7203 14.804 40.5963 14.752 40.4443 14.752C40.3723 14.752 40.3123 14.72 40.2643 14.656C40.2163 14.584 40.1923 14.512 40.1923 14.44C40.1923 14.256 40.2643 14.116 40.4083 14.02C40.5603 13.924 40.7403 13.876 40.9483 13.876C41.3803 13.876 41.6803 14.132 41.8483 14.644C42.0563 14.404 42.2923 14.212 42.5563 14.068C42.8283 13.916 43.0883 13.84 43.3363 13.84C43.6323 13.84 43.9003 13.92 44.1403 14.08C44.3883 14.24 44.5123 14.456 44.5123 14.728C44.5123 14.88 44.4443 15.036 44.3083 15.196C44.1803 15.356 44.0483 15.436 43.9123 15.436C43.8403 15.436 43.7763 15.42 43.7203 15.388C43.6723 15.348 43.6123 15.292 43.5403 15.22C43.4603 15.14 43.3923 15.084 43.3363 15.052C43.2803 15.012 43.2163 14.992 43.1443 14.992C43.0163 14.992 42.8963 15.012 42.7843 15.052C42.6723 15.092 42.5963 15.14 42.5563 15.196C42.4283 15.396 42.3323 15.576 42.2683 15.736C42.2123 15.896 42.1843 16.068 42.1843 16.252C42.1843 16.388 42.1803 16.496 42.1723 16.576L42.1603 17.26C42.1603 17.364 42.1643 17.48 42.1723 17.608C42.1803 17.736 42.1883 17.832 42.1963 17.896C42.2203 18.112 42.2323 18.32 42.2323 18.52ZM48.5858 16.3C48.6498 16.34 48.7738 16.416 48.9578 16.528C49.1498 16.632 49.2778 16.756 49.3418 16.9C49.4058 17.044 49.4378 17.244 49.4378 17.5C49.4378 17.788 49.3538 18.044 49.1858 18.268C49.0178 18.484 48.8018 18.652 48.5378 18.772C48.3458 18.86 48.1098 18.928 47.8298 18.976C47.5578 19.024 47.3418 19.048 47.1818 19.048C47.0218 19.048 46.8138 19.024 46.5578 18.976C46.3098 18.928 46.1378 18.884 46.0418 18.844C45.7938 18.7 45.5778 18.524 45.3938 18.316C45.2178 18.108 45.1298 17.896 45.1298 17.68C45.1298 17.52 45.1818 17.396 45.2858 17.308C45.3898 17.212 45.5258 17.164 45.6938 17.164C45.7738 17.164 45.8578 17.196 45.9458 17.26C46.0338 17.316 46.0938 17.376 46.1258 17.44C46.2138 17.648 46.3618 17.804 46.5698 17.908C46.7778 18.012 46.9898 18.064 47.2058 18.064C47.4858 18.064 47.7458 18.02 47.9858 17.932C48.2258 17.836 48.3458 17.708 48.3458 17.548C48.3458 17.476 48.3258 17.42 48.2858 17.38C48.2538 17.332 48.2058 17.284 48.1418 17.236C48.0298 17.156 47.8618 17.092 47.6378 17.044C47.4138 16.988 47.2698 16.952 47.2058 16.936C46.8778 16.864 46.5578 16.756 46.2458 16.612C45.9338 16.46 45.6858 16.28 45.5018 16.072C45.3178 15.864 45.2258 15.596 45.2258 15.268C45.2258 15.052 45.3058 14.828 45.4658 14.596C45.6258 14.356 45.8058 14.188 46.0058 14.092C46.1498 14.036 46.3898 13.976 46.7258 13.912C47.0698 13.848 47.3018 13.816 47.4218 13.816C47.6058 13.816 47.8058 13.836 48.0218 13.876C48.2378 13.908 48.4018 13.964 48.5138 14.044C48.7298 14.172 48.9058 14.308 49.0418 14.452C49.1778 14.588 49.2458 14.744 49.2458 14.92C49.2458 15.008 49.2258 15.104 49.1858 15.208C49.1458 15.304 49.0978 15.364 49.0418 15.388C48.9218 15.444 48.7818 15.472 48.6218 15.472C48.5498 15.472 48.4898 15.452 48.4418 15.412C48.4018 15.372 48.3458 15.308 48.2738 15.22C48.1858 15.084 48.1018 15.004 48.0218 14.98C47.9258 14.956 47.7858 14.928 47.6018 14.896C47.4178 14.856 47.2938 14.836 47.2298 14.836C47.0458 14.836 46.8538 14.888 46.6538 14.992C46.4618 15.096 46.3658 15.216 46.3658 15.352C46.3658 15.424 46.3938 15.48 46.4498 15.52C46.5138 15.56 46.5778 15.596 46.6418 15.628C46.7138 15.66 46.7618 15.68 46.7858 15.688C46.9538 15.768 47.1378 15.836 47.3378 15.892C47.5458 15.948 47.6738 15.984 47.7218 16C48.1538 16.104 48.4418 16.204 48.5858 16.3Z" fill="black"/>
<path d="M15.3888 11.392C15.3888 11.6 15.3848 11.844 15.3768 12.124C15.3688 12.396 15.3608 12.604 15.3528 12.748C15.3288 13.156 15.3168 13.564 15.3168 13.972C15.3168 14.276 15.3288 14.592 15.3528 14.92C15.6008 14.56 15.8688 14.296 16.1568 14.128C16.4448 13.96 16.7928 13.876 17.2008 13.876C17.4968 13.876 17.7728 14.008 18.0288 14.272C18.2848 14.536 18.4488 14.844 18.5208 15.196C18.5448 15.508 18.5568 15.888 18.5568 16.336C18.5568 16.624 18.5728 17 18.6048 17.464C18.6208 17.64 18.6648 17.804 18.7368 17.956C18.8168 18.108 18.9288 18.184 19.0728 18.184C19.1448 18.184 19.2008 18.18 19.2408 18.172C19.2888 18.164 19.3328 18.16 19.3728 18.16C19.4848 18.16 19.5608 18.188 19.6008 18.244C19.6488 18.3 19.6728 18.38 19.6728 18.484C19.6728 18.676 19.5768 18.82 19.3848 18.916C19.1928 19.012 19.0168 19.06 18.8568 19.06C18.2808 19.06 17.8848 18.82 17.6688 18.34C17.5488 18.068 17.4728 17.716 17.4408 17.284C17.4088 16.844 17.3928 16.332 17.3928 15.748C17.3928 15.172 17.1968 14.884 16.8048 14.884C16.5888 14.884 16.3688 15 16.1448 15.232C15.9288 15.456 15.7488 15.756 15.6048 16.132C15.4608 16.5 15.3888 16.884 15.3888 17.284L15.4008 18.532C15.4008 18.708 15.3328 18.84 15.1968 18.928C15.0608 19.008 14.9328 19.048 14.8128 19.048C14.6368 19.048 14.4768 18.996 14.3328 18.892C14.1888 18.78 14.1168 18.656 14.1168 18.52C14.1728 17.92 14.2008 16.916 14.2008 15.508C14.2008 15.252 14.1808 14.304 14.1408 12.664L14.1048 11.56C14.1048 11.384 14.1848 11.232 14.3448 11.104C14.5048 10.968 14.6848 10.9 14.8848 10.9C15.0608 10.9 15.1888 10.94 15.2688 11.02C15.3488 11.1 15.3888 11.224 15.3888 11.392Z" fill="#AC8A63"/>
</svg>
