<?xml version="1.0" encoding="UTF-8" standalone="no"?><svg xmlns="http://www.w3.org/2000/svg" xmlns:xlink="http://www.w3.org/1999/xlink" fill="#000000" height="500.4" preserveAspectRatio="xMidYMid meet" version="1" viewBox="-0.2 -0.2 379.0 500.4" width="379" zoomAndPan="magnify"><g id="change1_1"><path d="M330.5585022,182.2267456c3.5948792,12.3471222,5.4264526,25.1581268,5.5220642,37.8717651 c0.1253662,6.3640594-0.3409424,12.6870422-1.0067444,18.9546509c-0.409729,3.1220398-0.7848206,6.2498169-1.3750305,9.3286896 c-0.291687,1.5553741-0.4950867,3.0649109-0.8643494,4.6551666c-0.350708,1.5767212-0.6779785,3.1551514-1.0574646,4.7255859 c-1.5496521,6.2843323-3.6870728,12.4569397-6.2868958,18.4089661c-2.5578613,5.9819031-5.8478699,11.6105957-9.3861694,16.9932861 c-1.5818481,2.2328796-3.2397766,4.7299805-5.3079224,7.1586914c-1.0174866,1.2262573-2.0198669,2.5384827-3.1505127,3.7918091 c-1.1457825,1.2357178-2.3247375,2.5068054-3.5329285,3.8096924c-1.182373,1.3284302-2.5300903,2.535553-3.8626709,3.8111877 c-0.6701965,0.6324768-1.347229,1.2714539-2.0305786,1.9165344c-0.6775208,0.6512146-1.3725891,1.2932434-2.1135254,1.8904724 c-1.4574585,1.2188721-2.9402771,2.4588623-4.4445801,3.7168579c-0.7409058,0.642334-1.525238,1.2329102-2.3227539,1.8153687 c-0.7921448,0.5881348-1.5896301,1.1800537-2.3915405,1.7754211c-3.1578369,2.4537964-6.602478,4.5987854-10.0178528,6.8613586 c-1.7115784,1.1258545-3.5231628,2.0942993-5.289856,3.1515503c-1.7915955,1.0115967-3.5319519,2.1332703-5.3825684,3.0394287 l-2.7432251,1.4218445l-0.685791,0.3550415l-0.1614685,0.0768127c-0.0951233,0.0428162-0.1872864,0.0919495-0.2931519,0.1337891 l-0.3555908,0.1079712c-0.0580444,0.0207825-0.1282654,0.0336609-0.1780396,0.0620728l-0.0589905,0.1503601 c-0.0858765,0.2013855-0.1619568,0.4190674-0.1887817,0.6667786c-0.6058044,3.6282959-1.2087097,7.2362061-1.8023071,10.7904663 c-5.1240387,30.6157532-9.4861755,57.5362549-10.5509796,62.3209839c-0.579483,2.5509338-1.2150421,6.850769-2.9398041,5.8450317 c-1.571106-0.9143372-1.5155029-5.1318359-1.347702-8.2674866c0.6238556-11.303833,1.327713-22.6389771,2.1359406-33.9616699 l1.7832947-25.0256348l0.9033508-12.513031l0.1985168-2.3475342c0.0707397-0.8113403,0.1248779-1.6341553,0.2507172-2.4173279 l0.3277893-2.3830566l0.0409698-0.2985229c0.0185394-0.0965881,0.0009766-0.2164612,0.1151123-0.250885l0.504364-0.3251038 l1.0096741-0.6511841l6.7156372-4.2370911c1.7427979-1.0549011,3.3739014-2.2630005,5.0318604-3.4285278 c1.6388855-1.1904602,3.3456116-2.2922363,4.9255066-3.5486145l4.7567444-3.7352905 c0.807251-0.6044006,1.5588989-1.2698364,2.3096008-1.9355774l2.2622681-1.982666 c5.9795837-5.3248901,11.5401917-11.0544739,16.3017883-17.3180847c4.763092-6.2572937,8.8033142-12.9704895,11.9455261-20.0497131 c3.1685486-7.0696716,5.3684082-14.5200195,6.7336731-22.1593628c2.69104-15.5584412,3.0280762-31.6077576,0.3511963-46.904068 c-0.1517029-1.0983429-0.4199524-2.1738739-0.6321411-3.2591705c-0.2370605-1.0801086-0.4194946-2.1718597-0.6994629-3.240509 c-0.551178-2.1389923-1.0496826-4.2886658-1.7267151-6.3865051c-1.2223511-4.2325134-2.7778625-8.3522949-4.5040894-12.3797607 c-3.4846191-8.0457764-7.9150391-15.6395264-13.1366272-22.5972137 c-5.1972046-6.9743347-11.2119141-13.298584-17.7573242-18.8451538c-3.277832-2.7666321-6.7141724-5.3048706-10.2417297-7.5905151 c-0.8814087-0.5715332-1.7793884-1.1013184-2.6647034-1.6590881l-2.6939392-1.5486755l-5.9644775-3.0933838 c-1.0394287-0.5214233-2.0608215-1.091507-3.115387-1.5720825l-3.1739349-1.4076462l-3.1729431-1.4066696l-1.5857391-0.7030029 l-1.6150208-0.6055069l-6.4575958-2.4109879l-6.5468597-2.0037079c-8.7628174-2.4589767-17.6739044-3.9963684-26.5415802-4.4356689 c-8.8662109-0.449234-17.6831665,0.2277298-26.212326,2.0414505c-8.5325928,1.8045654-16.7676239,4.7505798-24.5422058,8.6412277 c-7.7667847,3.9018631-15.1209106,8.6956177-21.7984924,14.3574219 c-6.6892929,5.640213-12.7878952,12.011734-18.1816711,18.8830872c-2.6144485,3.4871368-5.2176819,6.9976196-7.4326553,10.6991272 c-1.196991,1.8098755-2.1647263,3.7106628-3.255867,5.5602264l-1.449173,2.8330383 c-0.5087433,0.9385986-0.9409103,1.891449-1.364296,2.844986c-0.4131393,0.9534149-0.9140778,1.898407-1.268692,2.8544312 l-1.14431,2.8580322l-2.180336,6.3675537c-0.3560715,1.0666351-0.7648239,2.1261902-1.0862656,3.1983185l-0.895546,3.2267914 l-0.915062,3.2268982l-0.465332,1.6139221c-0.1438904,0.5391083-0.2385178,1.08255-0.3619308,1.6236572 c-2.4344635,10.0017548-3.5070724,20.2140961-2.9568634,30.2814484 c0.5506897,10.0661926,2.6446915,19.9723358,6.1683502,29.4306488c0.7906799,2.3977051,1.9086533,4.6783752,2.8885803,7.0131531 c0.4619217,1.1800537,1.1062698,2.284729,1.6550064,3.4304504c0.583374,1.1304016,1.1057816,2.2904968,1.731102,3.4032288 c1.2964935,2.2019958,2.4544678,4.4811707,3.8948517,6.6158752c0.6970291,1.0792236,1.3603973,2.1791992,2.0774155,3.249115 l2.2261887,3.1695557c3.0246658,4.1924438,6.2371292,8.301178,9.7642059,12.1837158 c3.4992676,3.9006958,7.1760864,7.6945801,11.0758133,11.2826233c3.6499939,3.3916016,8.871582,7.6444702,15.291626,11.8886414 l1.068222,0.6824951c0.4004517,0.24646,0.8023834,0.4939575,1.2062531,0.7425842 c0.8018951,0.4966125,1.6116028,0.9975586,2.4276428,1.5027161c0.807251,0.5013428,1.6208649,1.0069275,2.4412842,1.5165405 l1.2209015,0.7566528l0.6111755,0.3777771l0.3033905,0.1867981c0.0424347,0.037323,0.1195068,0.0487366,0.1331635,0.1072693 l0.0365753,0.1788025c0.3877869,1.9056702,0.7819061,3.8401794,1.1808929,5.8016357 c0.2829132,2.0286255,0.5692291,4.085144,0.8589783,6.1676636c0.2985077,2.4151917,0.6048279,4.8907166,0.9170074,7.4175415 c0.2936401,2.4702454,0.5931244,4.9907532,0.8974915,7.5527039c2.4091034,20.4995728,4.6982117,43.7188721,5.8274078,65.2698059 c0.121933,2.3328857,0.6165314,4.8410645-1.7720795,5.2971497c-2.5812836,0.4927673-3.9129028-1.9441528-4.5274811-4.7044373 c-1.8686523-8.4532471-3.8855896-16.8930359-5.416214-25.4190979l-7.1975555-40.2553711l-1.7989044-10.0643616 l-0.8028717-4.5697021l-0.3594818-2.0073547l-0.1843719-0.9942627l-0.0917053-0.4952698l-0.0463409-0.2471619 c-0.0053558-0.0890808-0.1346283-0.0897522-0.1960754-0.1389771c-1.2350464-0.6116028-2.4281311-1.2703247-3.6021881-1.9334412 c-0.5082703-0.296814-1.347229-0.772583-2.0788879-1.2203064l-2.2325287-1.3622131 c-2.9373627-1.8703613-5.8454514-3.7907715-8.6564713-5.8462524 c-11.3006821-8.1424561-21.5994797-17.7688293-30.4578934-28.7371521 c-4.462616-5.4589539-8.4067307-11.3666382-11.963562-17.5192566c-3.6104813-6.1321411-6.5351563-12.6836548-9.022789-19.4058533 l-1.8545074-5.3755493l-1.4979401-5.4929657c-0.2307205-0.9207916-0.534111-1.8279266-0.7028809-2.7624359l-0.5584946-2.795166 l-0.5506973-2.8006592c-0.177063-0.9349976-0.3897324-1.8664703-0.4824066-2.8126221 c-0.4560623-3.7729034-1.0452957-7.5518494-1.1374817-11.3575592c-0.0765762-1.8998718-0.2511978-3.8063812-0.2385178-5.7066803 l0.101944-5.704483c0.0253601-0.9507904,0.0229263-1.9054718,0.0726776-2.854187l0.2468109-2.8356628l0.5141144-5.6767426 c0.1990051-1.8883514,0.563858-3.7447357,0.8414001-5.6203461c0.3165665-1.866272,0.560936-3.7545471,0.94384-5.6052246 l1.2599106-5.5249786c0.4506989-1.8321228,0.7760468-3.7107697,1.3618546-5.4971161l1.6057434-5.4168854 c0.550209-1.8096924,1.0209045-3.5977936,1.7442703-5.4560242c2.6432343-7.3889923,6.0781174-14.3404083,10.0456467-20.9292145 c3.9748459-6.5849152,8.4935608-12.806488,13.4795532-18.6385956 c9.9315109-11.7030258,21.8658066-21.7345886,35.1746445-29.7922592 c14.6765442-8.7985992,31.4300079-14.4892426,48.648819-16.521904c8.615509-0.9463425,17.3007507-1.0038376,25.9064941-0.3292465 c4.265564,0.5362396,8.5764923,0.9155426,12.7674103,1.8127975l3.1627045,0.594902l1.5813599,0.2999802 c0.5228882,0.1140137,1.0370026,0.2548599,1.5559845,0.3813705l6.2137299,1.5714798l1.55159,0.3992996l1.5203857,0.4812469 l3.0397949,0.9664001l3.0388031,0.9715805l1.5189209,0.4877701l1.4847717,0.5608749 c3.9353485,1.5436707,7.9540863,2.943512,11.7445526,4.7638779l5.7566681,2.6045761l5.5845032,2.8850403l2.7875977,1.4531326 l1.3930969,0.7275696l1.4501343,0.8326263c1.9554749,1.1038284,3.825592,2.2989273,5.6844788,3.5082932 c7.3677979,4.9061279,14.0678101,10.556282,20.1356812,16.7913361c3.0661316,3.0898438,5.8835144,6.4007721,8.6330566,9.7614594 c1.3218689,1.7216492,2.6905518,3.4101868,3.9275513,5.194519c0.6287231,0.8848114,1.2720947,1.7597504,1.8862,2.6546936 l1.7984009,2.7147522C321.467926,158.0690765,326.9138794,169.8925934,330.5585022,182.2267456z M253.3277588,478.2518005 c-2.7754059-1.6238708-5.7142334-2.4537964-8.2916107-2.869873c-2.5773926-0.4193115-4.7947998-0.4382019-6.153717-0.7914124 c-5.7678986-1.5440369-11.3328857-0.3245544-17.0588226-1.2177734c-4.9528351-0.7905579-9.7671356,0.2190552-14.563385,1.4707947 c-4.7947845,1.2662659-9.5700684,2.7905579-14.4107056,3.4703064c-4.6748047,0.4224243-9.2349701,2.2886353-13.8595276,3.3356323 c-4.0563049,0.9344482-8.111145,1.8771973-12.1552582,2.9541321c-4.0436249,1.077301-8.0755463,2.2972107-12.097702,3.6302795 c-1.3652649,0.4477234-2.725174,0.9669495-4.0738678,1.5712585c-0.3736267,0.1696777-0.8633423,0.5435486-0.8448181,1.9744263 c0.0204926,1.5714111,0.5648499,1.6841431,0.9038391,1.9237061c0.6341095,0.429657,4.0743561,1.4724121,7.9984741,2.7818909 c3.9211884,1.2682495,8.323822,2.7752991,10.7992554,3.0497742c5.8308105,0.6774597,11.6026154,0.5773926,17.3344116-0.0584106 c7.7326355-0.856842,15.4920959-1.3736267,23.1154633-3.6407776c6.93367-2.0700989,13.9887848-2.6871338,20.9024658-5.0559998 c6.5522156-2.2207031,13.1595764-3.7753906,19.7483826-5.5413208c1.0467529-0.2799072,2.0593719-0.982666,3.0807648-1.5592651 c0.3336334-0.1919556,0.590683-1.0323792,0.4048462-3.2858276 C253.9340668,478.3076477,253.6277466,478.4274902,253.3277588,478.2518005z M213.490036,273.1358643 c0.4682617-4.1140442,0.9984741-8.2307129,1.6335449-12.3534546c-6.0742188,0.5451965-12.1469574,0.9055176-18.2397156,1.104187 c-1.5320892,0.0474243-3.065155,0.0803528-4.5987091,0.1040649c0.3131561,1.9155273,0.6072845,3.8275452,0.8882446,5.7377014 c2.2471619,15.846405,3.3129272,31.5499573,3.3680573,47.21521c0.0278015,7.3832092,0.4667969,19.6182861,0.2209625,33.6514587 c-0.2224274,14.0342102-1.114563,29.8514709-3.0700378,44.3991089c-0.2112122,1.5744629-0.1599884,3.3197327-2.1286316,3.34375 c-2.1247253,0.0046387-2.8529816-1.7678223-2.9783325-3.6730957c-0.3736267-5.833313-0.9238434-11.6628723-1.1179657-17.4959412 c-0.6141052-18.3569031-1.5857544-36.6994629-3.1836853-54.9555054c-0.8072662-9.1259155-1.760849-18.2313538-2.9885712-27.2779236 c-1.2199249-9.0441895-2.6929932-18.0414429-4.6031036-26.8706055c-0.3224182-1.4631653-0.6560516-2.9225769-0.996994-4.3784485 c-3.9207153-0.2174988-7.8706818-0.5436401-11.8704071-1.0145264l-2.1159515-0.2511292l-2.1588745-0.3462524l-2.1598511-0.352356 c-0.7360382-0.1275024-1.3842926-0.2080383-2.2681274-0.4164429c-3.317337-0.6973267-6.727829-1.7239075-10.2007599-3.3849487 l-0.7609253-0.3748474l-0.8833466-0.4534454c-0.5789948-0.3019257-1.1106567-0.6790924-1.6686707-1.0152893 c-0.5463104-0.3521118-1.1150513-0.6780701-1.6437836-1.0521851l-1.54039-1.1800995l-0.7696991-0.5906982l-0.7019043-0.6560516 l-1.4038086-1.3128357l-1.2535706-1.4295349c-0.4311829-0.4680786-0.8199463-0.9630432-1.1745453-1.4803162 c-1.4920959-2.0212708-2.6271362-4.2558746-3.3651428-6.591507c-0.8126221-2.3251343-1.0935822-4.7700958-1.1530914-7.2123566 c0.1278076-4.4942627,1.4794159-8.9581604,4.0748444-12.6868134c2.5417786-3.7550964,6.2205505-6.7991638,10.4739075-8.8348694 c1.078949-0.4817963,2.1593628-0.969635,3.2846527-1.3422852c1.1316376-0.3666229,2.281311-0.6873322,3.4324493-0.978775 c0.6136169-0.1357269,1.2818604-0.2372437,1.9237671-0.3343048c0.5775146-0.0782318,1.0184631-0.164444,1.544281-0.2015686 c1.0189514-0.0643311,2.0349884-0.1264038,3.0583344-0.1317596c1.0374756,0.0397491,2.0720367,0.0928497,3.1066132,0.1873016 c1.0521088,0.1528473,2.1022797,0.3310089,3.1431885,0.5361176c1.0594482,0.2801666,2.1144867,0.5905151,3.1539307,0.9277496 c0.5248413,0.2030334,1.0482178,0.4275208,1.5667267,0.6524506c0.5497131,0.2372437,1.0960083,0.4851532,1.6359711,0.7419586 c0.8287354,0.4814301,1.6555023,0.9712067,2.458374,1.4907532c0.7887268,0.5319672,1.5237885,1.1504059,2.2291107,1.7226257 c0.7204437,0.589035,1.2433319,1.1697998,1.8564606,1.7715149c0.622879,0.6066742,1.0862579,1.1905975,1.579895,1.7870789 c1.0209045,1.1928406,1.7437744,2.3269653,2.5422516,3.4917603c0.6755676,1.125351,1.4018555,2.2803345,1.9447479,3.3761749 c1.2067413,2.233139,2.0983887,4.3764648,2.9602814,6.5157623c1.4213715,3.6511536,2.5076294,7.1962128,3.4646454,10.7040253 c5.7391052,0.0339508,11.4996796-0.0973816,17.2353821-0.3735809c2.5793304-0.1293793,5.156723-0.2532654,7.7223969-0.4703217 l3.8504639-0.289505l2.4686127-0.2449799c0.1682739-0.6229401,0.3233948-1.2450256,0.5004578-1.8685913 c0.934082-3.2909851,2.0510712-6.5978241,3.4041443-9.9236298c1.3764954-3.3211823,2.9939423-6.6751556,5.290863-10.0132751 c1.1160126-1.6664734,2.5173798-3.3248291,4.1206818-4.9145966c0.3946075-0.3982697,0.8760376-0.7784882,1.3174744-1.1621246 c0.4628906-0.3781433,0.8779907-0.7692719,1.4179535-1.1147919l1.56427-1.0402374 c0.5282593-0.3424683,1.0292053-0.567337,1.5506287-0.8496399c2.0661926-1.1071167,4.2158051-1.81073,6.3888245-2.3955536 c2.1822968-0.4793701,4.392868-0.8334808,6.6449127-0.8425751c2.2422791-0.0849304,4.5382233,0.1911469,6.8395233,0.6438599 c2.3149719,0.5906982,4.6494446,1.3021698,6.937561,2.6564026l0.8521423,0.479538 c0.2809448,0.177124,0.5594788,0.3816833,0.8370056,0.5757599c0.5550842,0.3944855,1.103363,0.8006134,1.6433105,1.2161865 c0.5223999,0.4752808,1.0369873,0.9649353,1.5403748,1.4655762c0.2497559,0.2540131,0.5058289,0.4950256,0.7414246,0.7670135 l0.6775208,0.8576965c0.4389954,0.583252,0.8935852,1.1575928,1.2794189,1.7781677 c0.3648376,0.6365967,0.7155457,1.2858887,1.0496826,1.9427948c0.3609314,0.6516571,0.5970154,1.3305054,0.8330994,2.0162506 c0.2316895,0.6847687,0.4716797,1.3771057,0.6506958,2.0704651c0.6867676,2.7701263,0.7540894,5.6474762,0.3633728,8.3192444 c-0.3926392,2.6810913-1.2320862,5.1699524-2.3525085,7.4190063c-2.2549744,4.5037689-5.5927734,8.0926666-9.734436,10.7812653 l-1.2886963,0.7949982l-1.3604126,0.7152557c-0.4950867,0.26651-0.8228455,0.3843689-1.197937,0.5449677l-1.1087036,0.4614868 c-1.4696655,0.5926514-2.9983368,1.2831421-4.3914185,1.676712c-1.4194183,0.4482117-2.8563843,0.9324951-4.2679901,1.34198 l-4.1782532,1.0699768c-1.4033203,0.3877869-2.7622528,0.6235657-4.1411743,0.9231262 c-1.3711243,0.2724609-2.7578583,0.6052551-4.1197205,0.8287048c-1.7501221,0.2876282-3.5075531,0.6079712-5.25914,0.8930664 c-2.9388275,13.379364-4.8674774,27.3502197-6.5341797,41.3517761c-0.7682495,6.5625305-1.9193878,15.6023254-3.0388184,25.6194458 c-1.1135864,10.015625-2.2022858,21.0040283-3.0588074,31.3944702 c-1.7584229,20.7818909-2.5003204,39.1449585-2.8388367,42.4286499c-0.20047,1.7558289-0.2404633,4.6732483-1.7315826,4.1812744 c-1.3623505-0.4508667-1.7720795-3.2827454-1.9603577-5.3972473c-0.6701965-7.6263428-1.1784515-15.2886963-1.5398865-22.9578552 c-1.0599365-22.5987854-1.4335632-45.2631531-0.6043549-68.0045471 C211.4848022,295.9475708,212.2071991,284.556488,213.490036,273.1358643z M165.0246124,240.7375641l4.596756,0.4736328 c-1.0452881-2.6521454-2.2057037-5.1946411-3.5348816-7.4368744c-1.6876831-2.9529572-3.8246155-5.3282318-5.4859619-5.9939728 c-1.0726013-0.4825287-2.599823-0.7719574-4.1065369-0.6933594l-1.1482239,0.1070557 c-0.1824188,0.0121918-0.4004517,0.0789642-0.551178,0.1068878c-0.1151123,0.032135-0.2190094,0.0500031-0.3453369,0.0718231 c-0.563385,0.150177-1.1072388,0.3473511-1.6237946,0.5953827c-1.0262756,0.5013123-1.94133,1.2126617-2.5866547,2.1193695 c-0.662384,0.8971252-0.9550476,2.0227814-0.885788,3.1068573c0.098526,1.5036774,1.0355377,2.8067017,2.1515656,3.6745605 c0.5648346,0.4396667,1.1847839,0.7841492,1.8076782,1.0717621l0.2302246,0.0910187l0.3946075,0.1856689 c0.2648621,0.1278534,0.5697174,0.223877,0.8506775,0.3400269c0.5545959,0.2407837,1.1838226,0.411499,1.7827911,0.6134338 c0.6160583,0.182373,1.2584534,0.3376007,1.894516,0.4977722c0.6848297,0.1240845,1.2559967,0.2769928,2.0281525,0.3877258 L165.0246124,240.7375641z M238.4541626,237.8933105c3.9460602-0.8034821,7.7726288-1.7651825,11.1821442-2.9572296 c0.9487152-0.4019318,1.9232941-0.7936707,2.8627319-1.1658325c0.5004578-0.2622375,1.0179749-0.5845337,1.5218506-0.9708557 c0.9887085-0.8012238,1.8603516-1.861084,2.3505707-2.8787079c0.5053406-1.0229034,0.6150818-1.8906555,0.544342-2.4250641 c-0.035614-0.2888947-0.1268005-0.4969177-0.1965637-0.651123c-0.0682983-0.053833-0.0317078-0.1643677-0.1365662-0.2060852 c-0.0317078-0.0312653-0.0522156-0.0696259-0.0643921-0.1174927c-0.0385437-0.0372467-0.1063232-0.064621-0.1443787-0.1087036 c-0.3312073-0.3318634-1.1779785-0.8611603-2.4310608-1.155899c-1.2408905-0.3009491-2.7890778-0.3641205-4.249939-0.1474915 c-1.0931091,0.1513977-2.111084,0.4860687-3.0002899,0.8577423c-0.2048645,0.1113434-0.4131317,0.2127991-0.6272736,0.3054199 c-0.1726685,0.1018829-0.2770538,0.2037048-0.4316711,0.2838745c-0.1429138,0.0471344-0.3097382,0.2524872-0.4750977,0.3697968 l-0.2570496,0.1949768c-0.0882874,0.0796967-0.1785278,0.1867676-0.2702332,0.2763214 c-1.4974518,1.3946686-3.1826935,4.0101013-4.5923615,6.9181213 C239.4804382,235.4595184,238.9585114,236.663147,238.4541626,237.8933105z M378.1322937,61.9025116 c-0.7711792-0.8661613-1.0964966-0.703186-1.3808899-0.6959915c-0.5199585,0.0263405-2.7359009,0.8689651-5.3181458,1.7672577 c-2.5608215,0.9195099-5.4762268,1.9057236-6.8380737,2.7790756c-3.2227173,2.0397949-6.039093,4.4881058-8.5764771,7.2179184 c-3.4231873,3.6823044-7.0243835,7.186264-9.7100525,11.6082153c-2.4388733,4.0263062-5.6420593,7.2941284-7.9258118,11.4784775 c-2.1764221,3.9519806-4.7030945,7.5560608-7.118042,11.270195c-0.3843689,0.5897141-0.5462952,1.4006348-0.7740784,2.1449738 c-0.0722046,0.2449188,0.2073059,0.8192673,1.3911133,1.9963837c1.0960083,1.0895004,1.190155,0.8959732,1.4242859,0.8692093 c2.1642456-0.2465057,4.0250854-1.002861,5.5059814-1.8396912c1.4828186-0.8351288,2.5924988-1.74366,3.4382935-2.110405 c3.6109619-1.5314789,5.7829895-4.5170593,9.0578918-6.3933945c2.8417664-1.613121,4.7421265-4.1707535,6.5161438-6.8554382 c1.7666931-2.6923141,3.3987732-5.5201721,5.47229-7.9050064c2.1159668-2.1729584,3.4753723-5.1018982,5.2635498-7.6016693 c1.5603943-2.2013092,3.1168518-4.4068909,4.6021118-6.6825867c1.48526-2.2758179,2.8959045-4.6261978,4.2465515-7.0353622 c0.4614258-0.8145218,0.8809204-1.6712875,1.2608948-2.563118 C378.7732239,63.1021843,378.8346863,62.6912346,378.1322937,61.9025116z M231.6292725,61.8498306 c1.0272369,0.3408928,1.2140503,0.0576782,1.4408722-0.0806656c0.4082642-0.2638206,1.8076782-1.9780922,3.4763489-3.9078979 c1.6423187-1.9371223,3.5402374-4.0936203,4.2343292-5.4345627c1.655014-3.1514282,2.7915192-6.4440079,3.5709839-9.8339539 c1.0516357-4.5732193,2.3305664-9.0851021,2.4412842-13.9126949c0.0951233-4.3924408,1.1623688-8.5278244,1.05896-12.9760532 c-0.0814667-4.2098303,0.2794952-8.302474,0.5023956-12.4309683c0.035614-0.6558692-0.2111969-1.3872211-0.3736267-2.0952208 c-0.055603-0.2318133-0.5497131-0.5659974-2.055954-0.9658478c-1.3940582-0.3700963-1.379425-0.1699273-1.5564728-0.0391436 c-1.6340332,1.2084529-2.7900543,2.6863992-3.5924377,4.05478c-0.8145752,1.3649664-1.28479,2.6179285-1.7989044,3.3083687 c-2.206192,2.921505-2.5705566,6.3479748-4.344574,9.3916664c-1.5457458,2.6289024-1.8906097,5.5829067-2.0740051,8.5808086 c-0.173645,3.0005226-0.1751099,6.0477524-0.7399445,8.9426117c-0.697998,2.7433472-0.4321747,5.7453957-0.7131195,8.6002579 c-0.4960632,5.0083122-0.8560486,10.0528412-0.7614136,15.2169952c0.0068207,0.8737183,0.0668182,1.7620125,0.1751099,2.660305 C230.5517883,61.1784744,230.6937256,61.539547,231.6292725,61.8498306z M94.1158676,14.1313066 c0.3667984,4.357625,2.774437,7.6961126,3.6231613,11.8177176c0.7209244,3.5709724,2.7690735,6.4735756,4.9962387,9.2864304 c2.2374039,2.8074265,4.6655273,5.5192528,6.4707718,8.5448341c1.5662308,2.9968681,4.1962967,5.4552956,6.222496,8.2187614 c1.7891464,2.4184914,3.5846252,4.8337517,5.4786453,7.1985855c1.8940125,2.3647766,3.8933868,4.6760178,5.9756851,6.9443398 c0.7033615,0.7715302,1.459404,1.5166016,2.2769089,2.2267914c0.2282867,0.1962051,0.6419067,0.4045486,1.7218323-0.0654221 c1.1857758-0.5159378,1.1257782-0.9168243,1.2174835-1.22052c0.1565704-0.5621567,0.0302429-3.2003288-0.022934-6.2480469 c-0.0838928-3.0322876-0.114624-6.4637566-0.5662994-8.2098579c-1.0404205-4.1227608-2.6544495-7.9576797-4.6640625-11.5943794 c-2.7105484-4.9066124-5.1698914-9.9396152-8.9203568-14.3221169c-3.4168396-3.9833221-5.7649689-8.5124588-9.4027634-12.3869476 c-3.4300079-3.6795616-6.3693161-7.6089849-9.4637375-11.4585352c-0.491188-0.6118479-1.2935715-1.065658-2.003273-1.5655624 c-0.2341309-0.16194-0.9394531-0.0654833-2.5983582,0.7795802c-1.5350189,0.7822018-1.3628311,0.9488366-1.4160004,1.2061968 c-0.491188,2.378372-0.3370514,4.612607,0.0346298,6.4723568C93.4446945,11.6164808,94.0212402,13.1079626,94.1158676,14.1313066z M52.6411743,131.7815094c-1.2843018-2.2498474-2.6895676-4.821434-3.7329102-5.9544601 c-2.4442215-2.6856689-5.2040291-4.923439-8.1823616-6.8527603c-4.0172806-2.6032944-7.8965263-5.4027939-12.4859638-7.1926117 c-4.1772709-1.6234207-7.7697048-4.0884323-12.0698967-5.5408325c-4.0641079-1.3903351-7.8618937-3.1635666-11.7416248-4.8173523 c-0.6165428-0.26297-1.4038053-0.2813797-2.1388764-0.3721695c-0.2419343-0.0276184-0.7345831,0.3291855-1.642813,1.633606 c-0.8414052,1.2073593-0.6443456,1.2633896-0.5804476,1.4786148c0.5882519,1.987915,1.6018403,3.611702,2.6339641,4.8578949 c1.0243192,1.2574158,2.0618083,2.1449738,2.544214,2.8786469c2.0310788,3.1338654,5.1889086,4.6782761,7.4882622,7.4402161 c1.9808378,2.3987961,4.6923571,3.759613,7.5024061,4.9808731c2.8159027,1.2129669,5.7366772,2.2771606,8.3150349,3.8284531 c2.3861752,1.6260529,5.3567028,2.4181824,7.9955425,3.6831665c4.6284599,2.2221527,9.3388672,4.3265839,14.322422,6.0368347 c0.8399429,0.2983856,1.7125664,0.5505066,2.6115265,0.7599487c0.2507172,0.0558472,0.6462975,0.0460358,1.2701569-0.7427521 c0.6848297-0.8661041,0.4785042-1.1439514,0.4248505-1.4094238 C55.0644226,135.9938965,53.9088936,134.0546417,52.6411743,131.7815094z M150.6446381,446.249176 c-0.3663177,0.1667786-0.8457947,0.5339355-0.8262939,1.9371338c0.0214691,1.5409851,0.5555725,1.6509705,0.8882294,1.8855896 c0.622406,0.4207153,3.9972839,1.4397888,7.8467865,2.7198792c3.8465576,1.2397461,8.1657715,2.7131653,10.593399,2.9797974 c5.7186279,0.6584167,11.3792114,0.5543518,16.9993134-0.0750427c7.5824127-0.8482361,15.1911469-1.3629761,22.6652679-3.5940857 c6.7970886-2.0371704,13.7151489-2.6495361,20.4932098-4.9797363c6.4229736-2.1844788,12.901062-3.7158813,19.360611-5.4544373 c1.0262756-0.2755737,2.0188904-0.9658508,3.0197906-1.5323181c0.3268127-0.1885376,0.5780029-1.01297,0.3931427-3.2227173 c-0.1707153-2.0452271-0.4707031-1.9273071-0.7653046-2.0993042c-2.7232361-1.5896301-5.605957-2.4005127-8.134079-2.8059082 c-2.5286102-0.4085693-4.7026062-0.4248352-6.035675-0.7698059c-5.6576538-1.5082703-11.1143494-0.3066406-16.730545-1.1767578 c-4.8577271-0.7702026-9.5783691,0.2248535-14.2799988,1.4573364c-4.7011261,1.2466125-9.3822784,2.7463989-14.1287689,3.4179993 c-4.5840759,0.4190674-9.0545044,2.2538147-13.5883331,3.2853699c-3.9767914,0.9205017-7.9521332,1.8492126-11.9167328,2.9094543 c-3.9645996,1.0605774-7.9174957,2.2611084-11.8606415,3.5724792 C153.2995758,445.1445618,151.9664917,445.6551514,150.6446381,446.249176z" fill="#e7e9ec"/></g></svg>