<?xml version="1.0" encoding="UTF-8" standalone="no"?><svg xmlns="http://www.w3.org/2000/svg" xmlns:xlink="http://www.w3.org/1999/xlink" fill="#000000" height="1119.5" preserveAspectRatio="xMidYMid meet" version="1" viewBox="303.1 666.5 1846.2 1119.5" width="1846.2" zoomAndPan="magnify"><g fill="#ffffff" id="change1_1"><path d="M 2048.699219 1652.75 C 2032.1875 1659.6875 2014.914062 1665.949219 1996.902344 1671.449219 C 1978.839844 1677 1959.980469 1681.828125 1940.308594 1685.898438 C 1920.570312 1690.007812 1900 1693.40625 1878.585938 1696.039062 C 1846.160156 1700.097656 1813.0625 1702.398438 1779.34375 1703.347656 C 1745.496094 1704.359375 1711.066406 1704.019531 1676.058594 1702.730469 C 1640.984375 1701.488281 1605.328125 1699.328125 1569.121094 1696.699219 C 1532.84375 1694.078125 1496.042969 1690.917969 1458.660156 1687.757812 C 1421.765625 1684.648438 1384.5 1681.5 1347.105469 1678.820312 C 1309.664062 1676.089844 1272.0625 1673.839844 1234.542969 1672.5 C 1196.953125 1671.207031 1159.414062 1670.777344 1122.101562 1671.789062 C 1084.703125 1672.839844 1047.492188 1675.226562 1010.671875 1679.578125 C 987.496094 1682.308594 964.996094 1685.75 943.0625 1689.867188 C 921.085938 1694.027344 899.6875 1698.859375 878.808594 1704.449219 C 857.859375 1710.046875 837.4375 1716.410156 817.445312 1723.539062 C 797.382812 1730.660156 777.773438 1738.597656 758.523438 1747.296875 L 355.269531 1210.347656 C 373.519531 1203.039062 392.023438 1196.4375 410.894531 1190.546875 C 429.714844 1184.71875 448.894531 1179.546875 468.503906 1175.007812 C 488.0625 1170.558594 508.054688 1166.726562 528.574219 1163.527344 C 549.019531 1160.378906 570.015625 1157.886719 591.5625 1155.96875 C 623.988281 1153.097656 656.484375 1151.71875 689.152344 1151.476562 C 721.746094 1151.1875 754.554688 1152.046875 787.628906 1153.628906 C 820.675781 1155.257812 854.007812 1157.597656 887.730469 1160.328125 C 921.398438 1163.046875 955.476562 1166.15625 989.957031 1169.316406 C 1023.960938 1172.425781 1058.230469 1175.578125 1092.574219 1178.359375 C 1126.863281 1181.078125 1161.203125 1183.46875 1195.402344 1185.097656 C 1229.550781 1186.726562 1263.503906 1187.539062 1297.082031 1187.207031 C 1330.554688 1186.917969 1363.601562 1185.4375 1396.011719 1182.367188 C 1416.265625 1180.507812 1435.808594 1178.066406 1454.675781 1175.058594 C 1473.492188 1172.039062 1491.613281 1168.457031 1509.121094 1164.335938 C 1526.554688 1160.226562 1543.367188 1155.539062 1559.597656 1150.277344 C 1575.765625 1145.019531 1591.363281 1139.238281 1606.398438 1132.820312 L 2096.023438 1629.699219 C 2080.9375 1638.117188 2065.179688 1645.769531 2048.699219 1652.75 Z M 2148.53125 1635.867188 C 2147.949219 1634.71875 2147.066406 1633.519531 2145.878906 1632.328125 L 1629.695312 1112.59375 C 1628.8125 1111.738281 1627.679688 1110.867188 1626.414062 1110.0625 C 1625.148438 1109.246094 1623.710938 1108.480469 1622.128906 1107.753906 C 1620.558594 1107.097656 1618.859375 1106.464844 1617.0625 1105.894531 C 1615.269531 1105.367188 1613.386719 1104.933594 1611.445312 1104.605469 C 1610.417969 1104.417969 1609.363281 1104.261719 1608.335938 1104.128906 C 1607.320312 1104.023438 1606.304688 1103.929688 1605.300781 1103.890625 C 1604.285156 1103.839844 1603.3125 1103.839844 1602.363281 1103.839844 C 1601.371094 1103.839844 1600.4375 1103.890625 1599.527344 1103.984375 C 1598.773438 1104.023438 1598.050781 1104.128906 1597.335938 1104.261719 C 1596.625 1104.367188 1595.925781 1104.511719 1595.28125 1104.65625 C 1594.609375 1104.800781 1593.988281 1104.984375 1593.394531 1105.183594 C 1592.789062 1105.367188 1592.222656 1105.605469 1591.695312 1105.84375 C 1576.4375 1113.070312 1560.601562 1119.621094 1544.132812 1125.503906 C 1527.582031 1131.382812 1510.414062 1136.648438 1492.519531 1141.199219 C 1474.5625 1145.789062 1455.917969 1149.707031 1436.492188 1152.957031 C 1417.003906 1156.207031 1396.75 1158.796875 1375.679688 1160.757812 C 1345.257812 1163.578125 1314.394531 1164.917969 1283.042969 1165.199219 C 1251.621094 1165.488281 1219.742188 1164.679688 1187.414062 1163.148438 C 1155.03125 1161.566406 1122.222656 1159.277344 1088.910156 1156.546875 C 1055.582031 1153.867188 1021.792969 1150.757812 987.472656 1147.597656 C 953.5625 1144.449219 919.316406 1141.289062 884.929688 1138.515625 C 850.496094 1135.699219 815.917969 1133.296875 781.316406 1131.621094 C 746.6875 1129.960938 712.011719 1129.050781 677.457031 1129.289062 C 642.804688 1129.527344 608.277344 1130.960938 573.9375 1133.976562 C 549.6875 1136.078125 526.132812 1138.898438 503.222656 1142.488281 C 480.21875 1146.066406 457.859375 1150.429688 436.003906 1155.539062 C 414.074219 1160.65625 392.695312 1166.585938 371.722656 1173.289062 C 350.679688 1180.027344 330.066406 1187.585938 309.8125 1196.007812 C 308.234375 1196.628906 306.917969 1197.386719 305.914062 1198.246094 C 304.886719 1199.105469 304.144531 1200.015625 303.6875 1200.976562 C 303.257812 1201.9375 303.09375 1202.988281 303.257812 1204.039062 C 303.429688 1205.085938 303.90625 1206.136719 304.695312 1207.238281 L 726.046875 1774.757812 C 726.960938 1776 728.105469 1777.148438 729.46875 1778.199219 C 730.832031 1779.25 732.386719 1780.257812 734.128906 1781.121094 C 735.878906 1782.027344 737.789062 1782.839844 739.820312 1783.507812 C 741.859375 1784.179688 744.007812 1784.75 746.253906 1785.179688 C 747.5 1785.417969 748.769531 1785.566406 749.988281 1785.707031 C 751.230469 1785.847656 752.472656 1785.898438 753.691406 1785.949219 C 754.914062 1786 756.109375 1786 757.277344 1785.949219 C 758.453125 1785.898438 759.601562 1785.808594 760.726562 1785.65625 C 761.65625 1785.566406 762.566406 1785.417969 763.425781 1785.230469 C 764.308594 1785.089844 765.148438 1784.847656 765.960938 1784.660156 C 766.773438 1784.417969 767.5625 1784.128906 768.304688 1783.839844 C 769.070312 1783.558594 769.761719 1783.269531 770.433594 1782.9375 C 790.28125 1772.796875 810.558594 1763.65625 831.292969 1755.4375 C 851.953125 1747.257812 873.070312 1739.988281 894.785156 1733.628906 C 916.402344 1727.308594 938.617188 1721.859375 961.476562 1717.316406 C 984.242188 1712.726562 1007.703125 1709 1031.902344 1706.128906 C 1066.703125 1701.96875 1101.683594 1699.617188 1136.980469 1698.617188 C 1172.183594 1697.609375 1207.710938 1697.996094 1243.613281 1699.238281 C 1279.453125 1700.527344 1315.703125 1702.730469 1352.417969 1705.359375 C 1389.078125 1708.039062 1426.183594 1711.148438 1463.789062 1714.347656 C 1500.828125 1717.457031 1538.160156 1720.570312 1575.488281 1723.246094 C 1612.777344 1725.929688 1650.09375 1728.128906 1687.148438 1729.417969 C 1724.121094 1730.660156 1760.832031 1731 1796.960938 1729.9375 C 1833 1728.839844 1868.445312 1726.359375 1902.976562 1721.996094 C 1927.226562 1718.9375 1950.394531 1715.070312 1972.5625 1710.339844 C 1994.6875 1705.597656 2015.773438 1700.046875 2035.933594 1693.636719 C 2056.03125 1687.238281 2075.148438 1679.957031 2093.398438 1671.878906 C 2111.59375 1663.796875 2128.882812 1654.859375 2145.367188 1645.097656 C 2146.617188 1644.339844 2147.582031 1643.417969 2148.253906 1642.46875 C 2148.898438 1641.507812 2149.269531 1640.457031 2149.308594 1639.359375 C 2149.335938 1638.207031 2149.070312 1637.070312 2148.53125 1635.867188" fill="inherit"/><path d="M 1726.652344 1401.523438 C 1715.914062 1404.722656 1704.898438 1407.640625 1693.5625 1410.222656 C 1682.191406 1412.8125 1670.503906 1415.101562 1658.484375 1417.0625 C 1646.429688 1419.070312 1634.019531 1420.742188 1621.21875 1422.132812 C 1609.503906 1423.371094 1597.570312 1424.382812 1585.464844 1425.140625 C 1573.347656 1425.910156 1561.023438 1426.441406 1548.554688 1426.722656 C 1536.070312 1427.0625 1523.390625 1427.152344 1510.578125 1427.0625 C 1497.730469 1426.960938 1484.734375 1426.722656 1471.566406 1426.292969 L 1359.402344 1236.992188 C 1366.351562 1236.75 1373.289062 1236.519531 1380.214844 1236.179688 C 1387.152344 1235.851562 1394.066406 1235.460938 1401.003906 1235.03125 C 1407.90625 1234.601562 1414.832031 1234.121094 1421.707031 1233.550781 C 1428.621094 1233.023438 1435.484375 1232.402344 1442.375 1231.730469 C 1455.050781 1230.546875 1467.4375 1229.15625 1479.542969 1227.566406 C 1491.609375 1225.992188 1503.398438 1224.21875 1514.953125 1222.316406 C 1526.496094 1220.347656 1537.792969 1218.246094 1548.859375 1215.949219 C 1559.914062 1213.65625 1570.734375 1211.175781 1581.375 1208.4375 L 1757.980469 1390.953125 C 1747.820312 1394.769531 1737.363281 1398.3125 1726.652344 1401.523438 Z M 1931.976562 1615.261719 C 1921.042969 1618.839844 1909.832031 1622.050781 1898.277344 1624.921875 C 1886.683594 1627.832031 1874.777344 1630.371094 1862.488281 1632.621094 C 1850.164062 1634.859375 1837.472656 1636.78125 1824.367188 1638.363281 C 1807.144531 1640.410156 1789.496094 1641.941406 1771.441406 1642.902344 C 1753.363281 1643.902344 1734.859375 1644.429688 1716.011719 1644.480469 C 1697.140625 1644.570312 1677.890625 1644.242188 1658.335938 1643.621094 C 1638.746094 1642.953125 1618.859375 1641.941406 1598.667969 1640.75 L 1478.820312 1438.492188 C 1492.234375 1438.921875 1505.511719 1439.160156 1518.628906 1439.210938 C 1531.734375 1439.253906 1544.730469 1439.160156 1557.542969 1438.820312 C 1570.332031 1438.441406 1582.984375 1437.921875 1595.46875 1437.101562 C 1607.929688 1436.292969 1620.214844 1435.28125 1632.332031 1433.949219 C 1645.207031 1432.5625 1657.664062 1430.882812 1669.78125 1428.921875 C 1681.921875 1426.910156 1693.660156 1424.660156 1705.09375 1422.132812 C 1716.515625 1419.601562 1727.605469 1416.730469 1738.414062 1413.621094 C 1749.210938 1410.460938 1759.730469 1407.023438 1769.953125 1403.292969 L 1963.832031 1603.589844 C 1953.496094 1607.839844 1942.871094 1611.71875 1931.976562 1615.261719 Z M 1542.542969 1636.871094 C 1532.148438 1636.113281 1521.671875 1635.25 1511.152344 1634.390625 C 1500.601562 1633.570312 1490.011719 1632.671875 1479.371094 1631.761719 C 1468.695312 1630.851562 1457.984375 1629.941406 1447.222656 1629.03125 C 1425.394531 1627.171875 1403.433594 1625.300781 1381.386719 1623.53125 C 1359.351562 1621.710938 1337.183594 1620.039062 1314.941406 1618.460938 C 1292.675781 1616.929688 1270.320312 1615.542969 1247.882812 1614.441406 C 1225.457031 1613.339844 1202.929688 1612.480469 1180.328125 1611.960938 L 1051.839844 1407.640625 C 1069.230469 1408.5 1086.539062 1409.5 1103.828125 1410.652344 C 1121.066406 1411.75 1138.289062 1413.042969 1155.460938 1414.382812 C 1172.609375 1415.722656 1189.707031 1417.109375 1206.726562 1418.589844 C 1223.761719 1420.03125 1240.714844 1421.511719 1257.570312 1422.992188 C 1274.644531 1424.519531 1291.574219 1426 1308.359375 1427.441406 C 1325.128906 1428.871094 1341.765625 1430.261719 1358.253906 1431.550781 C 1374.71875 1432.84375 1391.023438 1433.992188 1407.195312 1435.042969 C 1423.332031 1436.050781 1439.308594 1436.910156 1455.113281 1437.632812 L 1573.558594 1639.121094 C 1563.296875 1638.453125 1552.949219 1637.691406 1542.542969 1636.871094 Z M 1107.9375 1611.671875 C 1092.019531 1611.910156 1076.066406 1612.390625 1060.066406 1613.101562 C 1044.070312 1613.820312 1028 1614.78125 1011.929688 1616.019531 C 995.8125 1617.269531 979.671875 1618.800781 963.507812 1620.660156 C 949.207031 1622.289062 935.195312 1624.152344 921.421875 1626.210938 C 907.621094 1628.261719 894.085938 1630.5625 880.742188 1633.050781 C 867.375 1635.542969 854.222656 1638.3125 841.234375 1641.269531 C 828.230469 1644.242188 815.414062 1647.441406 802.6875 1650.941406 L 758.257812 1593.210938 L 1092.019531 1509.851562 L 1155.558594 1611.570312 C 1139.726562 1611.429688 1123.847656 1611.429688 1107.9375 1611.671875 Z M 677.597656 1430.691406 C 690.246094 1427.972656 703.066406 1425.480469 716.078125 1423.179688 C 729.0625 1420.941406 742.238281 1418.882812 755.652344 1417.011719 C 769.042969 1415.203125 782.671875 1413.570312 796.589844 1412.132812 C 816.03125 1410.132812 835.425781 1408.601562 854.796875 1407.453125 C 874.144531 1406.351562 893.441406 1405.632812 912.691406 1405.253906 C 931.917969 1404.871094 951.117188 1404.820312 970.273438 1405.0625 C 989.378906 1405.292969 1008.488281 1405.820312 1027.527344 1406.542969 L 1083.71875 1496.550781 L 748.09375 1580.011719 L 639.957031 1439.589844 C 652.371094 1436.382812 664.902344 1433.421875 677.597656 1430.691406 Z M 518.3125 1225.234375 C 530.316406 1222.167969 542.464844 1219.445312 554.828125 1217.050781 C 567.1875 1214.605469 579.746094 1212.507812 592.5625 1210.6875 C 605.355469 1208.925781 618.390625 1207.386719 631.757812 1206.191406 C 644.117188 1205.042969 656.601562 1204.175781 669.207031 1203.566406 C 681.808594 1202.941406 694.527344 1202.5625 707.371094 1202.367188 C 720.214844 1202.183594 733.148438 1202.183594 746.207031 1202.367188 C 759.265625 1202.5625 772.441406 1202.941406 785.734375 1203.417969 L 842.027344 1395.589844 C 837.457031 1395.871094 832.890625 1396.160156 828.300781 1396.5 C 823.707031 1396.832031 819.140625 1397.171875 814.550781 1397.550781 C 809.9375 1397.933594 805.34375 1398.3125 800.753906 1398.742188 C 796.136719 1399.171875 791.542969 1399.601562 786.933594 1400.082031 C 773.011719 1401.472656 759.382812 1403.101562 745.964844 1404.910156 C 732.550781 1406.730469 719.375 1408.742188 706.390625 1410.992188 C 693.382812 1413.242188 680.5625 1415.683594 667.914062 1418.3125 C 655.214844 1420.980469 642.683594 1423.851562 630.25 1426.960938 L 482.679688 1235.320312 C 494.421875 1231.640625 506.28125 1228.289062 518.3125 1225.234375 Z M 854.726562 1207.242188 C 870.054688 1208.304688 885.503906 1209.453125 901.09375 1210.746094 C 916.660156 1211.980469 932.371094 1213.324219 948.179688 1214.753906 C 963.964844 1216.144531 979.890625 1217.585938 995.910156 1219.015625 C 1007.628906 1220.117188 1019.386719 1221.167969 1031.179688 1222.214844 C 1042.96875 1223.265625 1054.757812 1224.316406 1066.597656 1225.320312 C 1078.40625 1226.332031 1090.269531 1227.335938 1102.128906 1228.289062 C 1114 1229.203125 1125.859375 1230.105469 1137.769531 1230.972656 L 1156.9375 1402.671875 C 1133.128906 1400.75 1109.1875 1399.03125 1085.160156 1397.550781 C 1061.097656 1396.070312 1036.949219 1394.820312 1012.699219 1394.011719 C 988.425781 1393.152344 964.035156 1392.671875 939.570312 1392.671875 C 915.058594 1392.722656 890.425781 1393.203125 865.726562 1394.339844 L 809.097656 1204.46875 C 824.164062 1205.238281 839.375 1206.191406 854.726562 1207.242188 Z M 1205.179688 1235.082031 C 1219.878906 1235.851562 1234.582031 1236.421875 1249.300781 1236.902344 C 1264.03125 1237.332031 1278.738281 1237.621094 1293.445312 1237.761719 C 1308.125 1237.851562 1322.808594 1237.8125 1337.488281 1237.519531 L 1447.917969 1425.382812 C 1432.566406 1424.710938 1417.027344 1423.800781 1401.332031 1422.800781 C 1385.625 1421.800781 1369.746094 1420.652344 1353.734375 1419.402344 C 1337.671875 1418.160156 1321.488281 1416.820312 1305.15625 1415.441406 C 1288.800781 1414 1272.324219 1412.570312 1255.726562 1411.082031 C 1249.53125 1410.5625 1243.339844 1410.03125 1237.148438 1409.460938 C 1230.953125 1408.929688 1224.738281 1408.363281 1218.519531 1407.832031 C 1212.277344 1407.261719 1206.058594 1406.730469 1199.816406 1406.199219 C 1193.578125 1405.683594 1187.339844 1405.152344 1181.066406 1404.632812 L 1161.078125 1232.542969 C 1175.769531 1233.5 1190.449219 1234.363281 1205.179688 1235.082031 Z M 1593.527344 1198.449219 C 1592.976562 1198.105469 1592.34375 1197.726562 1591.632812 1197.398438 C 1590.949219 1197.066406 1590.179688 1196.773438 1589.363281 1196.480469 C 1588.582031 1196.199219 1587.714844 1195.957031 1586.808594 1195.773438 C 1586.1875 1195.578125 1585.5625 1195.480469 1584.953125 1195.382812 C 1584.316406 1195.296875 1583.730469 1195.1875 1583.097656 1195.136719 C 1582.511719 1195.101562 1581.910156 1195.101562 1581.3125 1195.101562 C 1580.738281 1195.101562 1580.152344 1195.136719 1579.640625 1195.1875 C 1579.417969 1195.1875 1579.210938 1195.246094 1579.015625 1195.246094 C 1578.796875 1195.296875 1578.613281 1195.296875 1578.417969 1195.34375 C 1578.222656 1195.382812 1578.039062 1195.429688 1577.832031 1195.429688 C 1577.648438 1195.480469 1577.453125 1195.527344 1577.28125 1195.578125 C 1566.203125 1198.546875 1554.90625 1201.269531 1543.386719 1203.75 C 1531.832031 1206.289062 1520.035156 1208.585938 1508.015625 1210.636719 C 1495.933594 1212.75 1483.597656 1214.605469 1470.945312 1216.28125 C 1458.300781 1217.964844 1445.316406 1219.445312 1432.003906 1220.726562 C 1396.09375 1224.171875 1359.867188 1225.90625 1323.441406 1226.382812 C 1286.933594 1226.847656 1250.300781 1226.039062 1213.636719 1224.414062 C 1176.929688 1222.789062 1140.25 1220.300781 1103.738281 1217.378906 C 1067.148438 1214.472656 1030.726562 1211.175781 994.59375 1207.878906 C 961.761719 1204.898438 929.335938 1201.941406 897.410156 1199.351562 C 865.4375 1196.773438 833.945312 1194.527344 802.976562 1192.988281 C 771.9375 1191.511719 741.425781 1190.65625 711.4375 1190.886719 C 681.351562 1191.082031 651.796875 1192.316406 622.765625 1194.953125 C 608.179688 1196.285156 593.949219 1197.921875 579.984375 1199.9375 C 565.996094 1201.890625 552.292969 1204.238281 538.828125 1206.914062 C 525.34375 1209.585938 512.09375 1212.652344 499.039062 1216.035156 C 485.957031 1219.445312 473.066406 1223.21875 460.324219 1227.382812 C 459.414062 1227.675781 458.648438 1228.054688 458.050781 1228.484375 C 457.429688 1228.910156 456.976562 1229.433594 456.683594 1229.960938 C 456.398438 1230.484375 456.28125 1231.0625 456.351562 1231.640625 C 456.425781 1232.210938 456.683594 1232.78125 457.140625 1233.414062 L 785.351562 1661.980469 C 785.757812 1662.511719 786.285156 1663.03125 786.859375 1663.511719 C 787.433594 1663.941406 788.101562 1664.421875 788.84375 1664.800781 C 789.5625 1665.191406 790.375 1665.570312 791.210938 1665.902344 C 792.050781 1666.191406 792.933594 1666.480469 793.84375 1666.671875 C 794.558594 1666.859375 795.277344 1667 795.992188 1667.101562 C 796.710938 1667.242188 797.429688 1667.339844 798.121094 1667.390625 C 798.8125 1667.433594 799.507812 1667.433594 800.179688 1667.433594 C 800.847656 1667.433594 801.496094 1667.390625 802.140625 1667.292969 C 802.402344 1667.292969 802.640625 1667.242188 802.902344 1667.191406 C 803.144531 1667.152344 803.40625 1667.101562 803.644531 1667.050781 C 803.886719 1667 804.125 1666.960938 804.363281 1666.910156 C 804.605469 1666.859375 804.84375 1666.769531 805.058594 1666.722656 C 818.398438 1662.839844 831.863281 1659.300781 845.496094 1656 C 859.125 1652.75 872.925781 1649.742188 886.9375 1647.011719 C 900.925781 1644.242188 915.128906 1641.800781 929.621094 1639.550781 C 944.089844 1637.351562 958.84375 1635.390625 973.882812 1633.671875 C 1014.277344 1628.980469 1054.566406 1626.351562 1094.75 1625.25 C 1134.777344 1624.152344 1174.707031 1624.582031 1214.476562 1625.972656 C 1254.148438 1627.3125 1293.675781 1629.703125 1332.945312 1632.523438 C 1372.164062 1635.390625 1411.140625 1638.691406 1449.738281 1641.992188 C 1484.734375 1644.960938 1519.203125 1647.921875 1553.046875 1650.410156 C 1586.859375 1652.902344 1620.03125 1655 1652.449219 1656.242188 C 1684.828125 1657.53125 1716.453125 1657.960938 1747.171875 1657.25 C 1777.832031 1656.480469 1807.574219 1654.570312 1836.300781 1651.082031 C 1850.714844 1649.3125 1864.601562 1647.199219 1878.097656 1644.722656 C 1891.535156 1642.230469 1904.53125 1639.359375 1917.097656 1636.113281 C 1929.679688 1632.910156 1941.832031 1629.269531 1953.632812 1625.300781 C 1965.40625 1621.28125 1976.839844 1616.929688 1987.941406 1612.152344 C 1988.773438 1611.8125 1989.433594 1611.382812 1989.921875 1610.859375 C 1990.398438 1610.382812 1990.703125 1609.800781 1990.824219 1609.230469 C 1990.945312 1608.660156 1990.875 1608.03125 1990.640625 1607.359375 C 1990.375 1606.742188 1989.933594 1606.070312 1989.324219 1605.449219 L 1594.992188 1199.644531 C 1594.578125 1199.265625 1594.078125 1198.828125 1593.527344 1198.449219" fill="inherit"/><path d="M 1061.773438 1035.441406 C 980.871094 1035.441406 915.277344 969.832031 915.277344 888.957031 C 915.277344 808.03125 980.871094 742.464844 1061.773438 742.464844 C 1142.671875 742.464844 1208.261719 808.03125 1208.261719 888.957031 C 1208.261719 969.832031 1142.671875 1035.441406 1061.773438 1035.441406 Z M 1061.773438 666.507812 C 938.925781 666.507812 839.351562 766.085938 839.351562 888.957031 C 839.351562 1142.382812 1061.773438 1356.230469 1061.773438 1356.230469 C 1061.773438 1356.230469 1284.191406 1142.382812 1284.191406 888.957031 C 1284.191406 766.085938 1184.617188 666.507812 1061.773438 666.507812" fill="inherit"/></g></svg>