<?xml version="1.0" encoding="UTF-8" standalone="no"?><svg xmlns="http://www.w3.org/2000/svg" xmlns:xlink="http://www.w3.org/1999/xlink" fill="#e7e9ec" height="105.9" preserveAspectRatio="xMidYMid meet" version="1" viewBox="0.0 0.0 122.0 105.9" width="122" zoomAndPan="magnify"><g id="change1_1"><path d="M39.881,82.021c-3.336,0-5.852,2.938-5.852,6.834c0,1.147,0.194,5.022,2.695,6.701c1.678,1.126,4.135,1.088,7.292-0.081 c-0.009-0.171-0.018-0.341-0.017-0.503c0.007-2.082,0.651-3.927,1.724-5.322C45.629,84.731,43.566,82.021,39.881,82.021z" fill="inherit"/><path d="M55.188,90.772c-1.151-1.143-2.66-1.796-4.145-1.796c-0.012,0-0.024,0-0.036,0c-1.421,0.01-2.669,0.66-3.564,1.732 c-0.001,0.001-0.002,0.003-0.003,0.004c-0.893,1.073-1.434,2.568-1.44,4.268c-0.009,2.569,1.478,6.652,5.504,6.668 c0.011,0,0.021,0,0.032,0c1.551,0,2.794-0.454,3.694-1.351c1.142-1.137,1.77-3.026,1.77-5.321 C57,93.426,56.356,91.933,55.188,90.772z" fill="inherit"/><path d="M37.926,80.298c-0.014-3.025-2.16-5.759-4.966-6.15c-1.477-0.206-2.957,0.235-4.17,1.242 c-1.24,1.028-2.051,2.519-2.285,4.195c-0.308,2.21,0.191,4.194,1.368,5.444c1.007,1.068,2.49,1.595,4.414,1.576 C32.993,83.479,35.14,81.075,37.926,80.298z" fill="inherit"/><path d="M64.274,47.972c-0.853-0.453-1.881-0.459-2.761-0.009c-6.228,3.174-13.063,5.567-13.132,5.591 c-0.035,0.012-0.07,0.022-0.106,0.03c-6.784,1.555-11.71-1.14-13.417-4.299c-1.016-1.883-0.659-4.261,0.869-5.783 c8.141-8.114,23.676-16.051,30.761-13.733c11.68,3.701,17.761,2.057,20.804,0.021c3.503-2.34,3.958-5.689,4.015-6.337 c0.059-0.692,0.013-1.7-0.547-2.568c-1.653-2.563-5.883-2.748-10.362-2.944c-2.597-0.113-5.282-0.23-7.565-0.852 c-2.36-0.642-4.346-0.904-6.643-0.875c-21.772,0.273-33.54,7.535-33.656,7.608c-0.346,0.218-0.791,0.204-1.123-0.037L0,0.94v50.442 l10.479,5.716c0.165,0.09,0.301,0.225,0.393,0.389c0.072,0.129,7.095,12.534,15.292,17.8c0.393-0.528,0.839-1.015,1.349-1.437 c1.651-1.369,3.682-1.972,5.723-1.683c3.755,0.522,6.553,3.926,6.681,7.856c4.324,0.016,7.105,2.931,7.695,7.909 c0.991-0.605,2.139-0.947,3.381-0.956c0.017,0,0.033,0,0.049,0c2.01,0,4.032,0.864,5.555,2.377c1.337,1.327,2.152,2.996,2.352,4.77 c3.182-1.24,6.332-0.217,8.038,1.691c1.665,1.862,1.898,4.345,0.769,6.669c4.135,0.8,5.836-1.714,6.395-2.921 c0.988-2.132,0.611-4.424-0.386-5.049c-0.005-0.003-0.007-0.008-0.012-0.012c-0.024-0.018-0.051-0.031-0.074-0.049 c-4.179-3.275-14.541-11.572-20.466-17.87c-0.378-0.402-0.359-1.035,0.043-1.414c0.402-0.378,1.035-0.358,1.414,0.043 c5.832,6.198,16.099,14.42,20.243,17.667c1.287,1.008,2.892,1.458,4.404,1.233c2.715-0.403,4.94-1.713,6.613-3.894 c1.497-1.952,1.271-4.747-0.525-6.5c-7.747-7.562-21.096-17.917-21.23-18.021c-0.437-0.339-0.517-0.967-0.178-1.403 c0.337-0.438,0.966-0.516,1.403-0.179c0.135,0.104,13.573,10.529,21.402,18.171c0.551,0.538,0.976,1.154,1.313,1.804 c4.807-0.605,7.735-4.66,8.729-7.061c0.616-1.49-0.371-3.182-1.403-4.178C87.678,65.367,65.769,49.082,64.274,47.972z" fill="inherit"/><path d="M93.108,21.362c0.186,0.704,0.261,1.462,0.192,2.263c-0.201,2.338-1.593,5.622-4.896,7.828 c-4.957,3.312-12.536,3.386-22.528,0.219c-5.657-1.846-20.424,4.962-28.736,13.246c-0.906,0.902-1.12,2.308-0.521,3.417 c1.13,2.093,5.032,4.688,11.156,3.313c0.636-0.226,7.01-2.5,12.83-5.466c1.479-0.757,3.223-0.737,4.661,0.048 c4.178,2.279,15.376,6.542,29.092-3.053c0.453-0.316,1.076-0.206,1.393,0.246s0.207,1.076-0.246,1.393 c-9.858,6.898-18.543,7.053-24.542,5.67c7.407,5.6,20.175,15.438,25.867,20.927c0.873,0.842,1.696,2.068,2.033,3.424 c2.859-2.09,9.845-7.898,17.876-19.701c0.096-0.141,0.226-0.255,0.379-0.332L122,52.359V0L93.108,21.362z" fill="inherit"/><path d="M58.921,96.359c-0.231,2.222-1.014,4.096-2.28,5.356c-0.194,0.193-0.4,0.366-0.613,0.53 c0.669,1.823,1.787,2.937,3.266,3.225c1.972,0.388,4.405-0.705,5.915-2.652c1.587-1.983,1.69-4.1,0.286-5.671 C64.151,95.645,61.51,94.958,58.921,96.359z" fill="inherit"/></g></svg>